FFmpeg version SVN-r25716, Copyright (c) 2000-2010 the FFmpeg developers  built on Nov 10 2010 12:23:18 with gcc 4.1.2 20080704 (Red Hat 4.1.2-48)  configuration: --enable-libmp3lame --enable-shared --disable-mmx --arch=x86_64  libavutil     50.33. 0 / 50.33. 0  libavcore      0.12. 1 /  0.12. 1  libavcodec    52.94. 4 / 52.94. 4  libavformat   52.84. 0 / 52.84. 0  libavdevice   52. 2. 2 / 52. 2. 2  libavfilter    1.59. 0 /  1.59. 0  libswscale     0.12. 0 /  0.12. 0[mov,mp4,m4a,3gp,3g2,mj2 @ 0xb6c54c0] max_analyze_duration reachedSeems stream 0 codec frame rate differs from container frame rate: 1800.00 (1800/1) -> 30.00 (30/1)Input #0, mov,mp4,m4a,3gp,3g2,mj2, from '/RAID10/data/converted_video_files/40270.mov':  Duration: 00:00:10.80, bitrate: 6086 kb/s    Stream #0.0(eng): Video: svq1, yuv410p, 400x375, 6084 kb/s, 30 fps, 30 tbr, 1800 tbn, 1800 tbc[buffer @ 0xb6c8aa0] w:400 h:375 pixfmt:yuv410p[ffsink @ 0xb6cc310] auto-inserting filter 'auto-inserted scaler 0' between the filter 'src' and the filter 'out'[scale @ 0xb6cc600] w:400 h:375 fmt:yuv410p -> w:400 h:375 fmt:yuv420p flags:0x4Output #0, flv, to '/RAID10/data/converted_video_files/40270.flv':  Metadata:    encoder         : Lavf52.84.0    Stream #0.0(eng): Video: flv, yuv420p, 400x375, q=2-31, 600 kb/s, 1k tbn, 24 tbcStream mapping:  Stream #0.0 -> #0.0Press [q] to stop encodingframe=   61 fps=  0 q=16.2 size=     403kB time=2.54 bitrate=1298.7kbits/s dup=0 drop=15    frame=  124 fps=120 q=17.0 size=     588kB time=5.17 bitrate= 932.5kbits/s dup=0 drop=31    frame=  206 fps=133 q=19.5 size=     830kB time=8.58 bitrate= 792.1kbits/s dup=0 drop=51    frame=  260 fps=133 q=18.0 Lsize=     996kB time=10.83 bitrate= 753.5kbits/s dup=0 drop=64    video:992kB audio:0kB global headers:0kB muxing overhead 0.430154%